<?xml version="1.0" encoding="UTF-8"?>
<!DOCTYPE svg PUBLIC "-//W3C//DTD SVG 1.1//EN" "http://www.w3.org/Graphics/SVG/1.1/DTD/svg11.dtd">
<svg xmlns="http://www.w3.org/2000/svg" version="1.1" width="499px" height="500px" style="shape-rendering:geometricPrecision; text-rendering:geometricPrecision; image-rendering:optimizeQuality; fill-rule:evenodd; clip-rule:evenodd" xmlns:xlink="http://www.w3.org/1999/xlink">
<g><path style="opacity:1" fill="#2b8dcc" d="M 224.5,79.5 C 234.624,81.0698 244.958,81.7364 255.5,81.5C 255.833,81.5 256.167,81.5 256.5,81.5C 265.637,82.8194 274.971,83.486 284.5,83.5C 284.833,83.5 285.167,83.5 285.5,83.5C 288.544,85.0114 291.878,85.678 295.5,85.5C 300.365,86.5152 304.699,88.6819 308.5,92C 311.146,94.8016 313.146,97.9683 314.5,101.5C 316.101,107.711 316.768,114.044 316.5,120.5C 315.97,131.403 314.637,142.07 312.5,152.5C 310.917,150.492 309.917,148.159 309.5,145.5C 307.496,133.5 305.162,121.5 302.5,109.5C 301.833,106.833 300.167,105.167 297.5,104.5C 296.391,104.443 295.391,104.11 294.5,103.5C 286.132,102.359 277.798,102.692 269.5,104.5C 250.044,106.755 230.377,108.255 210.5,109C 208.333,109.833 206.833,111.333 206,113.5C 205.501,118.823 205.334,124.156 205.5,129.5C 205.5,145.5 205.5,161.5 205.5,177.5C 201.179,195.487 189.845,205.82 171.5,208.5C 153.155,208.72 134.822,208.386 116.5,207.5C 113.833,207.833 111.167,208.167 108.5,208.5C 108.137,209.183 107.804,209.85 107.5,210.5C 107.672,211.492 107.338,212.158 106.5,212.5C 105.778,212.918 105.278,213.584 105,214.5C 104.225,235.506 103.392,256.506 102.5,277.5C 102.5,278.167 102.5,278.833 102.5,279.5C 100.614,286.117 100.281,292.783 101.5,299.5C 102.674,300.514 103.34,301.847 103.5,303.5C 103.5,305.5 104.5,306.5 106.5,306.5C 108.359,307.594 110.359,308.427 112.5,309C 124.564,310.174 136.564,311.674 148.5,313.5C 152.21,315.136 156.21,315.802 160.5,315.5C 158.412,317.02 156.078,318.02 153.5,318.5C 153.167,318.5 152.833,318.5 152.5,318.5C 148.542,318.251 144.876,318.918 141.5,320.5C 140.5,320.5 139.5,320.5 138.5,320.5C 133.924,320.438 129.591,321.105 125.5,322.5C 120.686,323.206 115.853,323.873 111,324.5C 108.24,324.354 105.74,323.687 103.5,322.5C 101.898,320.926 99.8984,320.259 97.5,320.5C 97.0269,319.094 96.0269,318.427 94.5,318.5C 93.7377,316.738 92.4044,315.738 90.5,315.5C 84.2338,309.965 80.9005,302.965 80.5,294.5C 80.7927,287.595 80.126,280.928 78.5,274.5C 77.2253,262.203 76.5587,249.87 76.5,237.5C 76.2913,227.828 75.958,218.161 75.5,208.5C 75.5,208.167 75.5,207.833 75.5,207.5C 76.9238,205.485 77.5905,203.152 77.5,200.5C 78.4977,196.495 80.4977,193.161 83.5,190.5C 84.9063,190.027 85.573,189.027 85.5,187.5C 88.0892,186.581 90.0892,184.914 91.5,182.5C 91.8417,181.662 92.5084,181.328 93.5,181.5C 95.0269,181.573 96.0269,180.906 96.5,179.5C 99.855,179.31 102.855,178.31 105.5,176.5C 126.686,176.121 147.686,175.121 168.5,173.5C 169.458,173.047 170.292,172.381 171,171.5C 171.366,150.988 172.199,130.655 173.5,110.5C 175.776,107.207 177.109,103.54 177.5,99.5C 177.845,96.8021 179.178,94.8021 181.5,93.5C 183.833,91.8333 185.833,89.8333 187.5,87.5C 188.262,85.7376 189.596,84.7376 191.5,84.5C 193.027,84.573 194.027,83.9063 194.5,82.5C 197.152,82.5905 199.485,81.9238 201.5,80.5C 208.942,78.2248 216.609,77.8914 224.5,79.5 Z"/></g>
<g><path style="opacity:0.435" fill="#b0d3e8" d="M 224.5,79.5 C 235.016,79.6939 245.349,80.3606 255.5,81.5C 244.958,81.7364 234.624,81.0698 224.5,79.5 Z"/></g>
<g><path style="opacity:0.82" fill="#8ebdde" d="M 201.5,80.5 C 199.485,81.9238 197.152,82.5905 194.5,82.5C 196.515,81.0762 198.848,80.4095 201.5,80.5 Z"/></g>
<g><path style="opacity:0.188" fill="#b9d7e9" d="M 256.5,81.5 C 266.041,81.3449 275.374,82.0116 284.5,83.5C 274.971,83.486 265.637,82.8194 256.5,81.5 Z"/></g>
<g><path style="opacity:0.655" fill="#a4cae4" d="M 194.5,82.5 C 194.027,83.9063 193.027,84.573 191.5,84.5C 191.973,83.0937 192.973,82.427 194.5,82.5 Z"/></g>
<g><path style="opacity:0.929" fill="#84b6da" d="M 285.5,83.5 C 289.16,83.1588 292.493,83.8255 295.5,85.5C 291.878,85.678 288.544,85.0114 285.5,83.5 Z"/></g>
<g><path style="opacity:0.714" fill="#95c2dd" d="M 187.5,87.5 C 185.833,89.8333 183.833,91.8333 181.5,93.5C 182.5,90.5 184.5,88.5 187.5,87.5 Z"/></g>
<g><path style="opacity:0.99" fill="#7bb1d9" d="M 177.5,99.5 C 177.109,103.54 175.776,107.207 173.5,110.5C 173.667,106.327 175,102.66 177.5,99.5 Z"/></g>
<g><path style="opacity:0.02" fill="#cce3f0" d="M 294.5,103.5 C 286.164,103.782 277.831,104.116 269.5,104.5C 277.798,102.692 286.132,102.359 294.5,103.5 Z"/></g>
<g><path style="opacity:0.698" fill="#b1d2e7" d="M 297.5,104.5 C 300.167,105.167 301.833,106.833 302.5,109.5C 300.5,108.167 298.833,106.5 297.5,104.5 Z"/></g>
<g><path style="opacity:0.878" fill="#a4cae3" d="M 314.5,101.5 C 317.508,107.609 318.174,113.942 316.5,120.5C 316.768,114.044 316.101,107.711 314.5,101.5 Z"/></g>
<g><path style="opacity:0.012" fill="#b9d6e9" d="M 309.5,145.5 C 309.917,148.159 310.917,150.492 312.5,152.5C 312.688,154.103 312.188,155.437 311,156.5C 309.763,152.94 309.263,149.273 309.5,145.5 Z"/></g>
<g><path style="opacity:1" fill="#4cc9bb" d="M 348.5,157.5 C 348.703,159.044 349.37,160.378 350.5,161.5C 350.291,162.086 349.957,162.586 349.5,163C 351.25,165.018 352.584,167.185 353.5,169.5C 355.865,193.27 354.365,216.937 349,240.5C 347.786,244.645 346.286,248.645 344.5,252.5C 343.265,252.721 342.265,253.388 341.5,254.5C 340.119,258.876 338.786,263.21 337.5,267.5C 330.35,280.816 320.016,290.983 306.5,298C 287.649,307.026 267.983,310.859 247.5,309.5C 242.402,308.043 237.069,307.376 231.5,307.5C 229.435,307.483 227.435,307.15 225.5,306.5C 225.082,305.778 224.416,305.278 223.5,305C 223.833,304.667 224.167,304.333 224.5,304C 228.796,303.924 232.796,303.091 236.5,301.5C 239.728,300.454 243.061,299.788 246.5,299.5C 251.289,299.346 255.622,298.013 259.5,295.5C 272.065,290.218 284.065,283.884 295.5,276.5C 298.089,275.581 300.089,273.914 301.5,271.5C 302.026,269.77 303.026,268.436 304.5,267.5C 305.906,267.027 306.573,266.027 306.5,264.5C 307.906,264.027 308.573,263.027 308.5,261.5C 310.697,256.244 312.697,250.911 314.5,245.5C 316.163,243.562 316.829,241.228 316.5,238.5C 317.913,235.781 318.58,232.781 318.5,229.5C 318.372,225.119 318.705,220.785 319.5,216.5C 320.164,214.19 320.497,211.69 320.5,209C 320.475,206.071 319.809,203.571 318.5,201.5C 317.577,200.697 316.577,200.53 315.5,201C 315.833,201.333 316.167,201.667 316.5,202C 313.182,201.825 311.182,203.325 310.5,206.5C 306.797,208.679 302.797,210.345 298.5,211.5C 295.833,211.167 293.167,210.833 290.5,210.5C 290.5,211.5 290.5,212.5 290.5,213.5C 288.508,213.672 286.842,213.005 285.5,211.5C 285.436,212.365 285.103,213.365 284.5,214.5C 283.051,215.172 281.718,215.839 280.5,216.5C 274.726,217.946 268.726,218.612 262.5,218.5C 249.163,218.333 235.829,218.5 222.5,219C 218.91,219.311 215.577,220.144 212.5,221.5C 209.921,221.917 207.754,221.25 206,219.5C 202.698,221.305 199.531,223.305 196.5,225.5C 195.754,226.736 195.421,228.07 195.5,229.5C 194.833,229.833 194.167,230.167 193.5,230.5C 192.504,230.586 191.671,230.252 191,229.5C 190.517,230.448 190.351,231.448 190.5,232.5C 189.5,232.5 188.5,232.5 187.5,232.5C 187.5,233.833 187.5,235.167 187.5,236.5C 186.974,238.23 185.974,239.564 184.5,240.5C 180.71,240.008 180.044,240.841 182.5,243C 180.884,243.615 179.551,244.615 178.5,246C 179.38,247.356 179.714,248.856 179.5,250.5C 178.664,254.323 177.664,257.989 176.5,261.5C 174.989,264.544 174.322,267.878 174.5,271.5C 174.5,272.5 174.5,273.5 174.5,274.5C 173.732,275.263 173.232,276.263 173,277.5C 172.768,276.263 172.268,275.263 171.5,274.5C 170.343,271.727 169.676,268.727 169.5,265.5C 169.284,256.467 169.617,247.467 170.5,238.5C 171.924,236.485 172.59,234.152 172.5,231.5C 172.557,230.391 172.89,229.391 173.5,228.5C 174.906,228.027 175.573,227.027 175.5,225.5C 177.734,219.611 181.401,214.944 186.5,211.5C 188.736,210.611 190.736,209.278 192.5,207.5C 193.812,208.46 195.146,208.294 196.5,207C 195.833,206.667 195.167,206.333 194.5,206C 195.381,205.292 196.047,204.458 196.5,203.5C 200.213,200.977 204.213,198.977 208.5,197.5C 213.165,196.943 217.498,195.61 221.5,193.5C 229.742,192.809 237.742,191.475 245.5,189.5C 245.833,189.5 246.167,189.5 246.5,189.5C 251.122,189.844 255.455,189.177 259.5,187.5C 259.833,187.5 260.167,187.5 260.5,187.5C 265.607,187.956 270.274,186.956 274.5,184.5C 283.79,181.287 292.79,177.287 301.5,172.5C 303.492,172.672 305.158,172.005 306.5,170.5C 307.086,170.709 307.586,171.043 308,171.5C 309.631,168.851 311.965,167.184 315,166.5C 315.483,165.552 315.649,164.552 315.5,163.5C 320.237,158.953 325.57,155.12 331.5,152C 338.42,150.363 344.087,152.196 348.5,157.5 Z"/></g>
<g><path style="opacity:0.988" fill="#88d6cd" d="M 348.5,157.5 C 352.093,160.59 353.759,164.59 353.5,169.5C 352.584,167.185 351.25,165.018 349.5,163C 349.957,162.586 350.291,162.086 350.5,161.5C 349.37,160.378 348.703,159.044 348.5,157.5 Z"/></g>
<g><path style="opacity:0.725" fill="#a6cde5" d="M 205.5,129.5 C 206.246,141.674 206.913,154.007 207.5,166.5C 207.191,170.37 206.524,174.037 205.5,177.5C 205.5,161.5 205.5,145.5 205.5,129.5 Z"/></g>
<g><path style="opacity:1" fill="#79d2c8" d="M 315.5,163.5 C 315.649,164.552 315.483,165.552 315,166.5C 311.965,167.184 309.631,168.851 308,171.5C 307.586,171.043 307.086,170.709 306.5,170.5C 305.158,172.005 303.492,172.672 301.5,172.5C 306.159,169.503 310.825,166.503 315.5,163.5 Z"/></g>
<g><path style="opacity:0.671" fill="#a8cee3" d="M 168.5,173.5 C 147.686,175.121 126.686,176.121 105.5,176.5C 107.631,175.686 109.964,175.186 112.5,175C 131.171,174.567 149.838,174.067 168.5,173.5 Z"/></g>
<g><path style="opacity:0.914" fill="#78afd6" d="M 105.5,176.5 C 102.855,178.31 99.855,179.31 96.5,179.5C 99.0836,177.528 102.084,176.528 105.5,176.5 Z"/></g>
<g><path style="opacity:0.765" fill="#91c1de" d="M 96.5,179.5 C 96.0269,180.906 95.0269,181.573 93.5,181.5C 93.9731,180.094 94.9731,179.427 96.5,179.5 Z"/></g>
<g><path style="opacity:0.694" fill="#96c3df" d="M 91.5,182.5 C 90.0892,184.914 88.0892,186.581 85.5,187.5C 86.9108,185.086 88.9108,183.419 91.5,182.5 Z"/></g>
<g><path style="opacity:0.792" fill="#ade3dc" d="M 274.5,184.5 C 270.274,186.956 265.607,187.956 260.5,187.5C 265.044,186.509 269.711,185.509 274.5,184.5 Z"/></g>
<g><path style="opacity:0.573" fill="#bee9e3" d="M 259.5,187.5 C 255.455,189.177 251.122,189.844 246.5,189.5C 250.639,188.437 254.972,187.77 259.5,187.5 Z"/></g>
<g><path style="opacity:0.498" fill="#a2cae2" d="M 85.5,187.5 C 85.573,189.027 84.9063,190.027 83.5,190.5C 83.427,188.973 84.0937,187.973 85.5,187.5 Z"/></g>
<g><path style="opacity:1" fill="#2e8ecd" d="M 364.5,331.5 C 354.161,331.334 343.828,331.5 333.5,332C 332.584,332.278 331.918,332.778 331.5,333.5C 330.26,334.973 329.26,336.64 328.5,338.5C 329.654,358.457 329.821,378.457 329,398.5C 328.79,400.058 328.29,401.391 327.5,402.5C 325.744,403.552 325.077,405.219 325.5,407.5C 318.821,422.527 307.154,430.694 290.5,432C 282.465,432.736 274.465,432.569 266.5,431.5C 247.341,430.503 228.007,430.17 208.5,430.5C 206.901,430.768 205.568,430.434 204.5,429.5C 201.855,427.69 198.855,426.69 195.5,426.5C 195.027,425.094 194.027,424.427 192.5,424.5C 192.027,423.094 191.027,422.427 189.5,422.5C 182.644,417.451 178.311,410.784 176.5,402.5C 175.615,388.855 175.282,375.189 175.5,361.5C 175.233,353.778 175.566,346.111 176.5,338.5C 177.806,333.384 178.473,328.051 178.5,322.5C 178.549,318.922 179.215,315.589 180.5,312.5C 181.924,310.485 182.59,308.152 182.5,305.5C 182.5,305.167 182.5,304.833 182.5,304.5C 183.924,302.485 184.59,300.152 184.5,297.5C 185.648,293.213 187.315,289.213 189.5,285.5C 191.408,284.514 192.408,282.848 192.5,280.5C 192.845,277.802 194.178,275.802 196.5,274.5C 197.906,274.027 198.573,273.027 198.5,271.5C 198.5,270.833 198.833,270.5 199.5,270.5C 200.906,270.027 201.573,269.027 201.5,267.5C 201.833,266.5 202.5,265.833 203.5,265.5C 205.5,265.5 206.5,264.5 206.5,262.5C 208.027,262.573 209.027,261.906 209.5,260.5C 217.775,253.253 227.108,247.586 237.5,243.5C 240.916,243.472 243.916,242.472 246.5,240.5C 246.833,240.5 247.167,240.5 247.5,240.5C 250.313,240.452 252.979,239.785 255.5,238.5C 256.463,238.97 256.463,239.637 255.5,240.5C 249.377,244.734 243.043,248.734 236.5,252.5C 235.127,252.343 233.793,252.51 232.5,253C 233.598,253.77 233.598,254.603 232.5,255.5C 223.764,263.408 216.264,272.408 210,282.5C 206.544,290.687 204.044,299.02 202.5,307.5C 201.048,314.948 200.381,322.615 200.5,330.5C 200.501,335.346 200.834,340.012 201.5,344.5C 202.484,361.566 203.984,378.566 206,395.5C 206.903,396.701 208.069,397.535 209.5,398C 213.152,398.499 216.818,398.665 220.5,398.5C 244.35,398.675 268.017,398.008 291.5,396.5C 293.5,396.5 294.5,395.5 294.5,393.5C 294.333,373.164 294.5,352.831 295,332.5C 296.278,325.945 299.111,320.278 303.5,315.5C 304.906,315.027 305.573,314.027 305.5,312.5C 307.749,311.92 309.415,310.587 310.5,308.5C 310.973,307.094 311.973,306.427 313.5,306.5C 315.027,306.573 316.027,305.906 316.5,304.5C 319.135,302.672 322.135,301.505 325.5,301C 347.838,300.471 370.172,300.638 392.5,301.5C 395.167,300.833 396.833,299.167 397.5,296.5C 399.334,266.502 400.834,236.502 402,206.5C 400.221,202.388 397.388,199.222 393.5,197C 384.771,195.094 376.104,193.594 367.5,192.5C 367.833,191.833 368.167,191.167 368.5,190.5C 376.722,188.764 385.055,187.931 393.5,188C 406.333,190.833 414.167,198.667 417,211.5C 419.421,238.645 421.588,265.812 423.5,293C 422.783,312.38 413.116,324.714 394.5,330C 384.545,331.295 374.545,331.795 364.5,331.5 Z"/></g>
<g><path style="opacity:0.859" fill="#a3dfd8" d="M 245.5,189.5 C 237.742,191.475 229.742,192.809 221.5,193.5C 229.229,191.323 237.229,189.99 245.5,189.5 Z"/></g>
<g><path style="opacity:0.667" fill="#a5cce2" d="M 368.5,190.5 C 368.167,191.167 367.833,191.833 367.5,192.5C 362.521,191.754 362.854,191.088 368.5,190.5 Z"/></g>
<g><path style="opacity:0.753" fill="#a9e2d9" d="M 221.5,193.5 C 217.498,195.61 213.165,196.943 208.5,197.5C 212.502,195.39 216.835,194.057 221.5,193.5 Z"/></g>
<g><path style="opacity:0.99" fill="#8ad7cd" d="M 318.5,201.5 C 318.5,201.833 318.5,202.167 318.5,202.5C 316.117,204.358 313.45,205.692 310.5,206.5C 311.182,203.325 313.182,201.825 316.5,202C 316.167,201.667 315.833,201.333 315.5,201C 316.577,200.53 317.577,200.697 318.5,201.5 Z"/></g>
<g><path style="opacity:0.482" fill="#a7cee5" d="M 77.5,200.5 C 77.5905,203.152 76.9238,205.485 75.5,207.5C 75.4095,204.848 76.0762,202.515 77.5,200.5 Z"/></g>
<g><path style="opacity:0.663" fill="#a3cde5" d="M 171.5,208.5 C 153.327,209.758 134.994,209.758 116.5,208.5C 113.232,208.345 110.232,209.011 107.5,210.5C 107.804,209.85 108.137,209.183 108.5,208.5C 111.167,208.167 113.833,207.833 116.5,207.5C 134.822,208.386 153.155,208.72 171.5,208.5 Z"/></g>
<g><path style="opacity:0.149" fill="#cfeeeb" d="M 318.5,202.5 C 318.5,202.167 318.5,201.833 318.5,201.5C 319.809,203.571 320.475,206.071 320.5,209C 320.497,211.69 320.164,214.19 319.5,216.5C 319.819,211.637 319.486,206.97 318.5,202.5 Z"/></g>
<g><path style="opacity:0.843" fill="#88d5cc" d="M 196.5,203.5 C 196.047,204.458 195.381,205.292 194.5,206C 195.167,206.333 195.833,206.667 196.5,207C 195.146,208.294 193.812,208.46 192.5,207.5C 190.736,209.278 188.736,210.611 186.5,211.5C 188.963,207.7 192.296,205.033 196.5,203.5 Z"/></g>
<g><path style="opacity:0.992" fill="#8dd8cf" d="M 298.5,211.5 C 292.811,213.947 286.811,215.614 280.5,216.5C 281.718,215.839 283.051,215.172 284.5,214.5C 285.103,213.365 285.436,212.365 285.5,211.5C 286.842,213.005 288.508,213.672 290.5,213.5C 290.5,212.5 290.5,211.5 290.5,210.5C 293.167,210.833 295.833,211.167 298.5,211.5 Z"/></g>
<g><path style="opacity:0.05" fill="#ddf4f2" d="M 262.5,218.5 C 245.94,219.023 229.274,220.023 212.5,221.5C 215.577,220.144 218.91,219.311 222.5,219C 235.829,218.5 249.163,218.333 262.5,218.5 Z"/></g>
<g><path style="opacity:0.997" fill="#7bd3c9" d="M 212.5,221.5 C 206.515,223.324 200.849,225.99 195.5,229.5C 195.421,228.07 195.754,226.736 196.5,225.5C 199.531,223.305 202.698,221.305 206,219.5C 207.754,221.25 209.921,221.917 212.5,221.5 Z"/></g>
<g><path style="opacity:0.322" fill="#bee9e4" d="M 175.5,225.5 C 175.573,227.027 174.906,228.027 173.5,228.5C 173.427,226.973 174.094,225.973 175.5,225.5 Z"/></g>
<g><path style="opacity:0.388" fill="#bbd8ea" d="M 75.5,208.5 C 75.958,218.161 76.2913,227.828 76.5,237.5C 74.7899,227.858 74.4565,218.192 75.5,208.5 Z"/></g>
<g><path style="opacity:0.302" fill="#b3d4e8" d="M 106.5,212.5 C 105.902,234.359 104.568,256.025 102.5,277.5C 103.392,256.506 104.225,235.506 105,214.5C 105.278,213.584 105.778,212.918 106.5,212.5 Z"/></g>
<g><path style="opacity:0.992" fill="#8ad7ce" d="M 193.5,230.5 C 191.833,232.833 189.833,234.833 187.5,236.5C 187.5,235.167 187.5,233.833 187.5,232.5C 188.5,232.5 189.5,232.5 190.5,232.5C 190.351,231.448 190.517,230.448 191,229.5C 191.671,230.252 192.504,230.586 193.5,230.5 Z"/></g>
<g><path style="opacity:0.808" fill="#a7e0da" d="M 172.5,231.5 C 172.59,234.152 171.924,236.485 170.5,238.5C 170.41,235.848 171.076,233.515 172.5,231.5 Z"/></g>
<g><path style="opacity:0.314" fill="#d6e5ee" d="M 256.5,237.5 C 257.946,236.387 259.613,236.22 261.5,237C 260.692,238.706 259.359,239.539 257.5,239.5C 260.258,238.033 259.925,237.367 256.5,237.5 Z"/></g>
<g><path style="opacity:0.51" fill="#bae7e2" d="M 318.5,229.5 C 318.58,232.781 317.913,235.781 316.5,238.5C 316.42,235.219 317.087,232.219 318.5,229.5 Z"/></g>
<g><path style="opacity:0.902" fill="#7ab0d6" d="M 256.5,237.5 C 259.925,237.367 260.258,238.033 257.5,239.5C 257.158,240.338 256.492,240.672 255.5,240.5C 256.463,239.637 256.463,238.97 255.5,238.5C 252.979,239.785 250.313,240.452 247.5,240.5C 250.215,238.928 253.215,237.928 256.5,237.5 Z"/></g>
<g><path style="opacity:0.843" fill="#95c2e0" d="M 246.5,240.5 C 243.916,242.472 240.916,243.472 237.5,243.5C 240.215,241.928 243.215,240.928 246.5,240.5 Z"/></g>
<g><path style="opacity:0.757" fill="#b8e7e1" d="M 316.5,238.5 C 316.829,241.228 316.163,243.562 314.5,245.5C 314.721,242.933 315.388,240.599 316.5,238.5 Z"/></g>
<g><path style="opacity:0.991" fill="#88d7cd" d="M 184.5,240.5 C 183.341,244.151 181.674,247.485 179.5,250.5C 179.714,248.856 179.38,247.356 178.5,246C 179.551,244.615 180.884,243.615 182.5,243C 180.044,240.841 180.71,240.008 184.5,240.5 Z"/></g>
<g><path style="opacity:1" fill="#89b8dd" d="M 236.5,252.5 C 235.738,254.262 234.404,255.262 232.5,255.5C 233.598,254.603 233.598,253.77 232.5,253C 233.793,252.51 235.127,252.343 236.5,252.5 Z"/></g>
<g><path style="opacity:0.714" fill="#b2e3dc" d="M 170.5,238.5 C 169.617,247.467 169.284,256.467 169.5,265.5C 168.532,261.067 167.865,256.734 167.5,252.5C 167.923,247.571 168.923,242.904 170.5,238.5 Z"/></g>
<g><path style="opacity:0.991" fill="#87d6cc" d="M 344.5,252.5 C 342.956,257.919 340.622,262.919 337.5,267.5C 338.786,263.21 340.119,258.876 341.5,254.5C 342.265,253.388 343.265,252.721 344.5,252.5 Z"/></g>
<g><path style="opacity:0.733" fill="#94c2df" d="M 209.5,260.5 C 209.027,261.906 208.027,262.573 206.5,262.5C 206.973,261.094 207.973,260.427 209.5,260.5 Z"/></g>
<g><path style="opacity:0.275" fill="#c4eae7" d="M 308.5,261.5 C 308.573,263.027 307.906,264.027 306.5,264.5C 306.427,262.973 307.094,261.973 308.5,261.5 Z"/></g>
<g><path style="opacity:0.773" fill="#89bad6" d="M 206.5,262.5 C 206.5,264.5 205.5,265.5 203.5,265.5C 204.167,264.167 205.167,263.167 206.5,262.5 Z"/></g>
<g><path style="opacity:0.302" fill="#c7ebe6" d="M 306.5,264.5 C 306.573,266.027 305.906,267.027 304.5,267.5C 304.427,265.973 305.094,264.973 306.5,264.5 Z"/></g>
<g><path style="opacity:0.176" fill="#ceeeeb" d="M 176.5,261.5 C 176.451,265.078 175.785,268.411 174.5,271.5C 174.322,267.878 174.989,264.544 176.5,261.5 Z"/></g>
<g><path style="opacity:0.643" fill="#a7cbe3" d="M 201.5,267.5 C 201.573,269.027 200.906,270.027 199.5,270.5C 199.427,268.973 200.094,267.973 201.5,267.5 Z"/></g>
<g><path style="opacity:0.443" fill="#b9e5e1" d="M 301.5,271.5 C 300.089,273.914 298.089,275.581 295.5,276.5C 296.911,274.086 298.911,272.419 301.5,271.5 Z"/></g>
<g><path style="opacity:0.6" fill="#8fbddd" d="M 198.5,271.5 C 198.573,273.027 197.906,274.027 196.5,274.5C 196.427,272.973 197.094,271.973 198.5,271.5 Z"/></g>
<g><path style="opacity:0.102" fill="#d5eeeb" d="M 171.5,274.5 C 172.268,275.263 172.768,276.263 173,277.5C 173.232,276.263 173.732,275.263 174.5,274.5C 174.785,276.288 174.452,277.955 173.5,279.5C 171.783,278.332 171.116,276.665 171.5,274.5 Z"/></g>
<g><path style="opacity:1" fill="#79afd9" d="M 192.5,280.5 C 192.408,282.848 191.408,284.514 189.5,285.5C 189.75,283.326 190.75,281.659 192.5,280.5 Z"/></g>
<g><path style="opacity:0.271" fill="#bfdbec" d="M 78.5,274.5 C 80.126,280.928 80.7927,287.595 80.5,294.5C 79.4021,288.021 78.7354,281.354 78.5,274.5 Z"/></g>
<g><path style="opacity:0.251" fill="#a7d0e6" d="M 102.5,279.5 C 102.046,286.159 101.713,292.826 101.5,299.5C 100.281,292.783 100.614,286.117 102.5,279.5 Z"/></g>
<g><path style="opacity:0.855" fill="#a1ded5" d="M 259.5,295.5 C 255.622,298.013 251.289,299.346 246.5,299.5C 250.617,297.796 254.951,296.463 259.5,295.5 Z"/></g>
<g><path style="opacity:0.827" fill="#90bfde" d="M 397.5,296.5 C 396.833,299.167 395.167,300.833 392.5,301.5C 393.833,299.5 395.5,297.833 397.5,296.5 Z"/></g>
<g><path style="opacity:0.855" fill="#88b9d9" d="M 184.5,297.5 C 184.59,300.152 183.924,302.485 182.5,304.5C 182.41,301.848 183.076,299.515 184.5,297.5 Z"/></g>
<g><path style="opacity:0.651" fill="#b2e3de" d="M 236.5,301.5 C 232.796,303.091 228.796,303.924 224.5,304C 224.167,304.333 223.833,304.667 223.5,305C 224.416,305.278 225.082,305.778 225.5,306.5C 223.158,306.496 221.158,305.663 219.5,304C 225.048,302.549 230.715,301.716 236.5,301.5 Z"/></g>
<g><path style="opacity:0.867" fill="#92bfdf" d="M 103.5,303.5 C 104.833,304.167 105.833,305.167 106.5,306.5C 104.5,306.5 103.5,305.5 103.5,303.5 Z"/></g>
<g><path style="opacity:0.733" fill="#98c4df" d="M 316.5,304.5 C 316.027,305.906 315.027,306.573 313.5,306.5C 313.973,305.094 314.973,304.427 316.5,304.5 Z"/></g>
<g><path style="opacity:0.659" fill="#9edcd5" d="M 231.5,307.5 C 237.069,307.376 242.402,308.043 247.5,309.5C 241.916,309.745 236.583,309.078 231.5,307.5 Z"/></g>
<g><path style="opacity:0.635" fill="#8fbedd" d="M 182.5,305.5 C 182.59,308.152 181.924,310.485 180.5,312.5C 180.41,309.848 181.076,307.515 182.5,305.5 Z"/></g>
<g><path style="opacity:0.78" fill="#90bedd" d="M 310.5,308.5 C 309.415,310.587 307.749,311.92 305.5,312.5C 306.585,310.413 308.251,309.08 310.5,308.5 Z"/></g>
<g><path style="opacity:0.29" fill="#bfdaeb" d="M 148.5,313.5 C 152.705,313.717 156.705,314.383 160.5,315.5C 156.21,315.802 152.21,315.136 148.5,313.5 Z"/></g>
<g><path style="opacity:0.537" fill="#9dc9e2" d="M 305.5,312.5 C 305.573,314.027 304.906,315.027 303.5,315.5C 303.427,313.973 304.094,312.973 305.5,312.5 Z"/></g>
<g><path style="opacity:0.647" fill="#96c3e2" d="M 90.5,315.5 C 92.4044,315.738 93.7377,316.738 94.5,318.5C 92.5956,318.262 91.2623,317.262 90.5,315.5 Z"/></g>
<g><path style="opacity:0.037" fill="#dae8f1" d="M 160.5,315.5 C 163.718,315.651 164.051,316.484 161.5,318C 158.854,318.497 156.187,318.664 153.5,318.5C 156.078,318.02 158.412,317.02 160.5,315.5 Z"/></g>
<g><path style="opacity:0.361" fill="#abcfe5" d="M 94.5,318.5 C 96.0269,318.427 97.0269,319.094 97.5,320.5C 95.9731,320.573 94.9731,319.906 94.5,318.5 Z"/></g>
<g><path style="opacity:0.012" fill="#cfe4f0" d="M 152.5,318.5 C 149.054,319.687 145.387,320.354 141.5,320.5C 144.876,318.918 148.542,318.251 152.5,318.5 Z"/></g>
<g><path style="opacity:0.69" fill="#85badc" d="M 97.5,320.5 C 99.8984,320.259 101.898,320.926 103.5,322.5C 101.102,322.741 99.1016,322.074 97.5,320.5 Z"/></g>
<g><path style="opacity:0.141" fill="#c3dceb" d="M 138.5,320.5 C 134.409,321.895 130.076,322.562 125.5,322.5C 129.591,321.105 133.924,320.438 138.5,320.5 Z"/></g>
<g><path style="opacity:0.2" fill="#b6d6e9" d="M 202.5,307.5 C 201.747,319.819 201.414,332.152 201.5,344.5C 200.834,340.012 200.501,335.346 200.5,330.5C 200.381,322.615 201.048,314.948 202.5,307.5 Z"/></g>
<g><path style="opacity:0.653" fill="#afd2e6" d="M 364.5,331.5 C 353.429,332.316 342.429,332.982 331.5,333.5C 331.918,332.778 332.584,332.278 333.5,332C 343.828,331.5 354.161,331.334 364.5,331.5 Z"/></g>
<g><path style="opacity:0.525" fill="#aed1e7" d="M 178.5,322.5 C 178.473,328.051 177.806,333.384 176.5,338.5C 176.376,332.931 177.043,327.598 178.5,322.5 Z"/></g>
<g><path style="opacity:0.243" fill="#c6dfed" d="M 175.5,361.5 C 175.282,375.189 175.615,388.855 176.5,402.5C 175.698,401.048 175.198,399.382 175,397.5C 174.174,385.326 174.34,373.326 175.5,361.5 Z"/></g>
<g><path style="opacity:0.545" fill="#a5cbe2" d="M 294.5,393.5 C 294.5,395.5 293.5,396.5 291.5,396.5C 292.167,395.167 293.167,394.167 294.5,393.5 Z"/></g>
<g><path style="opacity:0.62" fill="#b2d4e6" d="M 291.5,396.5 C 268.017,398.008 244.35,398.675 220.5,398.5C 243.992,397.321 267.659,396.654 291.5,396.5 Z"/></g>
<g><path style="opacity:0.992" fill="#77afd8" d="M 327.5,402.5 C 327.598,404.553 326.931,406.22 325.5,407.5C 325.077,405.219 325.744,403.552 327.5,402.5 Z"/></g>
<g><path style="opacity:0.388" fill="#afd1e6" d="M 189.5,422.5 C 191.027,422.427 192.027,423.094 192.5,424.5C 190.973,424.573 189.973,423.906 189.5,422.5 Z"/></g>
<g><path style="opacity:0.384" fill="#a7cce3" d="M 192.5,424.5 C 194.027,424.427 195.027,425.094 195.5,426.5C 193.973,426.573 192.973,425.906 192.5,424.5 Z"/></g>
<g><path style="opacity:0.929" fill="#90bddf" d="M 195.5,426.5 C 198.855,426.69 201.855,427.69 204.5,429.5C 201.084,429.472 198.084,428.472 195.5,426.5 Z"/></g>
<g><path style="opacity:0.552" fill="#91c1dd" d="M 208.5,430.5 C 228.007,430.17 247.341,430.503 266.5,431.5C 264.753,431.593 262.919,431.926 261,432.5C 243.402,431.84 225.902,431.173 208.5,430.5 Z"/></g>
</svg>
